REM DIRINDEX 1\2,1\3,1\4,1\5
REM DIRNAME cjc100,folder01,folder02,folder03,folder04
TITLE ""
FILE "CD2Track26.mp3" MP3
  TRACK 01 AUDIO
    TITLE "0:"
    INDEX 01 00:00:00
  TRACK 02 AUDIO
    TITLE "2:cjc100_1851"
    INDEX 01 00:00:31
  TRACK 03 AUDIO
    TITLE "2:cjc100_1852"
    INDEX 01 00:02:36
  TRACK 04 AUDIO
    TITLE "0:"
    INDEX 01 00:10:14
  TRACK 05 AUDIO
    TITLE "2:cjc100_1853"
    INDEX 01 00:10:61
  TRACK 06 AUDIO
    TITLE "2:cjc100_1854"
    INDEX 01 00:11:74
  TRACK 07 AUDIO
    TITLE "0:"
    INDEX 01 00:15:62
  TRACK 08 AUDIO
    TITLE "2:cjc100_1855"
    INDEX 01 00:16:46
  TRACK 09 AUDIO
    TITLE "2:cjc100_1856"
    INDEX 01 00:18:23
  TRACK 10 AUDIO
    TITLE "0:"
    INDEX 01 00:24:65
  TRACK 11 AUDIO
    TITLE "2:cjc100_1857"
    INDEX 01 00:25:41
  TRACK 12 AUDIO
    TITLE "2:cjc100_1858"
    INDEX 01 00:27:04
  TRACK 13 AUDIO
    TITLE "0:"
    INDEX 01 00:33:11
  TRACK 14 AUDIO
    TITLE "2:cjc100_1859"
    INDEX 01 00:33:56
  TRACK 15 AUDIO
    TITLE "2:cjc100_1860"
    INDEX 01 00:35:68
  TRACK 16 AUDIO
    TITLE "0:"
    INDEX 01 00:43:35
  TRACK 17 AUDIO
    TITLE "2:cjc100_1861"
    INDEX 01 00:43:74
  TRACK 18 AUDIO
    TITLE "2:cjc100_1862"
    INDEX 01 00:45:32
  TRACK 19 AUDIO
    TITLE "0:"
    INDEX 01 00:52:59
  TRACK 20 AUDIO
    TITLE "2:cjc100_1863"
    INDEX 01 00:53:23
  TRACK 21 AUDIO
    TITLE "2:cjc100_1864"
    INDEX 01 00:54:52
  TRACK 22 AUDIO
    TITLE "0:"
    INDEX 01 01:01:38
  TRACK 23 AUDIO
    TITLE "2:cjc100_1865"
    INDEX 01 01:02:08
  TRACK 24 AUDIO
    TITLE "2:cjc100_1866"
    INDEX 01 01:03:39
  TRACK 25 AUDIO
    TITLE "0:"
    INDEX 01 01:09:46
  TRACK 26 AUDIO
    TITLE "2:cjc100_1867"
    INDEX 01 01:10:16
  TRACK 27 AUDIO
    TITLE "2:cjc100_1868"
    INDEX 01 01:12:15
  TRACK 28 AUDIO
    TITLE "0:"
    INDEX 01 01:20:71
  TRACK 29 AUDIO
    TITLE "2:cjc100_1869"
    INDEX 01 01:21:35
  TRACK 30 AUDIO
    TITLE "2:cjc100_1870"
    INDEX 01 01:23:16
  TRACK 31 AUDIO
    TITLE "0:"
    INDEX 01 01:28:47
  TRACK 32 AUDIO
    TITLE "2:cjc100_1871"
    INDEX 01 01:29:19
  TRACK 33 AUDIO
    TITLE "2:cjc100_1872"
    INDEX 01 01:31:00
  TRACK 34 AUDIO
    TITLE "0:"
    INDEX 01 01:37:05
  TRACK 35 AUDIO
    TITLE "2:cjc100_1873"
    INDEX 01 01:37:54
  TRACK 36 AUDIO
    TITLE "2:cjc100_1874"
    INDEX 01 01:38:73
  TRACK 37 AUDIO
    TITLE "0:"
    INDEX 01 01:45:45
  TRACK 38 AUDIO
    TITLE "2:cjc100_1875"
    INDEX 01 01:46:21
  TRACK 39 AUDIO
    TITLE "2:cjc100_1876"
    INDEX 01 01:48:46
  TRACK 40 AUDIO
    TITLE "0:"
    INDEX 01 01:54:41
  TRACK 41 AUDIO
    TITLE "2:cjc100_1877"
    INDEX 01 01:55:03
  TRACK 42 AUDIO
    TITLE "2:cjc100_1878"
    INDEX 01 01:57:06
  TRACK 43 AUDIO
    TITLE "0:"
    INDEX 01 02:05:17
  TRACK 44 AUDIO
    TITLE "2:cjc100_1879"
    INDEX 01 02:05:54
  TRACK 45 AUDIO
    TITLE "2:cjc100_1880"
    INDEX 01 02:07:39
  TRACK 46 AUDIO
    TITLE "0:"
    INDEX 01 02:14:45
  TRACK 47 AUDIO
    TITLE "2:cjc100_1881"
    INDEX 01 02:15:05
  TRACK 48 AUDIO
    TITLE "2:cjc100_1882"
    INDEX 01 02:17:18
  TRACK 49 AUDIO
    TITLE "0:"
    INDEX 01 02:24:65
  TRACK 50 AUDIO
    TITLE "2:cjc100_1883"
    INDEX 01 02:25:25
  TRACK 51 AUDIO
    TITLE "2:cjc100_1884"
    INDEX 01 02:26:56
  TRACK 52 AUDIO
    TITLE "0:"
    INDEX 01 02:32:37
  TRACK 53 AUDIO
    TITLE "2:cjc100_1885"
    INDEX 01 02:33:09
  TRACK 54 AUDIO
    TITLE "2:cjc100_1886"
    INDEX 01 02:35:14
  TRACK 55 AUDIO
    TITLE "0:"
    INDEX 01 02:42:14
  TRACK 56 AUDIO
    TITLE "2:cjc100_1887"
    INDEX 01 02:42:61
  TRACK 57 AUDIO
    TITLE "2:cjc100_1888"
    INDEX 01 02:44:38
  TRACK 58 AUDIO
    TITLE "0:"
    INDEX 01 02:51:56
  TRACK 59 AUDIO
    TITLE "2:cjc100_1889"
    INDEX 01 02:52:24
  TRACK 60 AUDIO
    TITLE "2:cjc100_1890"
    INDEX 01 02:53:35
  TRACK 61 AUDIO
    TITLE "0:"
    INDEX 01 02:59:67
  TRACK 62 AUDIO
    TITLE "2:cjc100_1891"
    INDEX 01 03:00:37
  TRACK 63 AUDIO
    TITLE "2:cjc100_1892"
    INDEX 01 03:02:01
  TRACK 64 AUDIO
    TITLE "0:"
    INDEX 01 03:09:11
  TRACK 65 AUDIO
    TITLE "2:cjc100_1893"
    INDEX 01 03:09:62
  TRACK 66 AUDIO
    TITLE "2:cjc100_1894"
    INDEX 01 03:11:18
  TRACK 67 AUDIO
    TITLE "0:"
    INDEX 01 03:17:16
  TRACK 68 AUDIO
    TITLE "2:cjc100_1895"
    INDEX 01 03:17:59
  TRACK 69 AUDIO
    TITLE "2:cjc100_1896"
    INDEX 01 03:19:47
  TRACK 70 AUDIO
    TITLE "0:"
    INDEX 01 03:25:47
  TRACK 71 AUDIO
    TITLE "2:cjc100_1897"
    INDEX 01 03:26:13
  TRACK 72 AUDIO
    TITLE "2:cjc100_1898"
    INDEX 01 03:28:06
  TRACK 73 AUDIO
    TITLE "0:"
    INDEX 01 03:35:34
  TRACK 74 AUDIO
    TITLE "2:cjc100_1899"
    INDEX 01 03:36:10
  TRACK 75 AUDIO
    TITLE "2:cjc100_1900"
    INDEX 01 03:38:32
  TRACK 76 AUDIO
    TITLE "0:"
    INDEX 01 03:44:52
  TRACK 77 AUDIO
    TITLE "2:cjc100_1901"
    INDEX 01 03:45:22
  TRACK 78 AUDIO
    TITLE "2:cjc100_1902"
    INDEX 01 03:47:17
  TRACK 79 AUDIO
    TITLE "0:"
    INDEX 01 03:53:12
  TRACK 80 AUDIO
    TITLE "2:cjc100_1903"
    INDEX 01 03:53:53
  TRACK 81 AUDIO
    TITLE "2:cjc100_1904"
    INDEX 01 03:55:27
  TRACK 82 AUDIO
    TITLE "0:"
    INDEX 01 04:02:23
  TRACK 83 AUDIO
    TITLE "2:cjc100_1905"
    INDEX 01 04:02:64
  TRACK 84 AUDIO
    TITLE "2:cjc100_1906"
    INDEX 01 04:05:02
  TRACK 85 AUDIO
    TITLE "0:"
    INDEX 01 04:11:53
  TRACK 86 AUDIO
    TITLE "2:cjc100_1907"
    INDEX 01 04:12:23
  TRACK 87 AUDIO
    TITLE "2:cjc100_1908"
    INDEX 01 04:14:16
  TRACK 88 AUDIO
    TITLE "0:"
    INDEX 01 04:24:71
  TRACK 89 AUDIO
    TITLE "2:cjc100_1909"
    INDEX 01 04:25:53
  TRACK 90 AUDIO
    TITLE "2:cjc100_1910"
    INDEX 01 04:27:15
  TRACK 91 AUDIO
    TITLE "0:"
    INDEX 01 04:32:65
  TRACK 92 AUDIO
    TITLE "2:cjc100_1911"
    INDEX 01 04:33:33
  TRACK 93 AUDIO
    TITLE "2:cjc100_1912"
    INDEX 01 04:34:52
  TRACK 94 AUDIO
    TITLE "0:"
    INDEX 01 04:39:32
  TRACK 95 AUDIO
    TITLE "2:cjc100_1913"
    INDEX 01 04:40:02
  TRACK 96 AUDIO
    TITLE "2:cjc100_1914"
    INDEX 01 04:41:60
  TRACK 97 AUDIO
    TITLE "0:"
    INDEX 01 04:47:26
  TRACK 98 AUDIO
    TITLE "2:cjc100_1915"
    INDEX 01 04:47:69
  TRACK 99 AUDIO
    TITLE "2:cjc100_1916"
    INDEX 01 04:49:20
  TRACK 100 AUDIO
    TITLE "0:"
    INDEX 01 04:55:37
  TRACK 101 AUDIO
    TITLE "2:cjc100_1917"
    INDEX 01 04:55:74
  TRACK 102 AUDIO
    TITLE "2:cjc100_1918"
    INDEX 01 04:57:53
  TRACK 103 AUDIO
    TITLE "0:"
    INDEX 01 05:03:34
  TRACK 104 AUDIO
    TITLE "2:cjc100_1919"
    INDEX 01 05:04:00
  TRACK 105 AUDIO
    TITLE "2:cjc100_1920"
    INDEX 01 05:05:59
  TRACK 106 AUDIO
    TITLE "0:"
    INDEX 01 05:12:37
  TRACK 107 AUDIO
    TITLE "2:cjc100_1921"
    INDEX 01 05:13:05
  TRACK 108 AUDIO
    TITLE "2:cjc100_1922"
    INDEX 01 05:14:73
  TRACK 109 AUDIO
    TITLE "0:"
    INDEX 01 05:22:36
